<svg width="146" height="14" viewBox="0 0 146 14" fill="none" xmlns="http://www.w3.org/2000/svg">
<path fill-rule="evenodd" clip-rule="evenodd" d="M3.70022 13.1734C4.71545 13.7161 5.84884 14 7 14L6.99999 11.5862C4.4671 11.5862 2.41379 9.53289 2.41379 7C2.41379 4.46711 4.4671 2.41379 6.99999 2.41379C8.26644 2.41379 9.41299 2.92712 10.2429 3.75706L10.2621 3.73793L18.8276 11.8276L18.8316 11.8235C19.6068 12.6388 20.5675 13.2556 21.6327 13.6211C22.7328 13.9986 23.9097 14.096 25.0569 13.9045C26.2041 13.713 27.2856 13.2386 28.2035 12.5243C29.1214 11.81 29.8469 10.8782 30.3143 9.81315C30.7817 8.7481 30.9764 7.58337 30.8807 6.4242C30.785 5.26504 30.402 4.14798 29.7663 3.17398C29.1306 2.19998 28.2622 1.39974 27.2396 0.845584C26.217 0.291424 25.0724 0.000809287 23.9093 6.03626e-06L23.9076 2.41381C26.4354 2.41978 28.4827 4.4708 28.4827 7C28.4827 9.53289 26.4294 11.5862 23.8965 11.5862C22.5643 11.5862 21.3648 11.0182 20.5269 10.1111L20.5076 10.1288L11.8284 1.93183C11.037 1.17788 10.0795 0.619164 9.03199 0.301418C7.9304 -0.0327451 6.7634 -0.090076 5.63437 0.134503C4.50533 0.359083 3.4491 0.858641 2.55925 1.58893C1.66939 2.31921 0.973373 3.25768 0.532845 4.32121C0.0923163 5.38474 -0.0791244 6.5405 0.0337086 7.68612C0.146542 8.83173 0.540166 9.93183 1.17971 10.889C1.81926 11.8461 2.68499 12.6308 3.70022 13.1734Z" fill="url(#paint0_linear_30_437)"/>
<path fill-rule="evenodd" clip-rule="evenodd" d="M9.64434 7.24137C9.52238 8.59466 8.38503 9.65516 6.99999 9.65516C5.53358 9.65516 4.34482 8.4664 4.34482 6.99999C4.34482 5.53358 5.53358 4.34482 6.99999 4.34482C8.38503 4.34482 9.52238 5.40532 9.64434 6.75861H21.2522C21.3741 5.40532 22.5115 4.34482 23.8965 4.34482C25.3629 4.34482 26.5517 5.53358 26.5517 6.99999C26.5517 8.4664 25.3629 9.65516 23.8965 9.65516C22.5115 9.65516 21.3741 8.59466 21.2522 7.24137H9.64434Z" fill="url(#paint1_linear_30_437)"/>
<path d="M35.7564 9.656V3.116C35.7564 2.3 35.7324 1.904 35.6484 1.352C36.1284 1.376 36.4284 1.388 37.4244 1.388H39.9324C41.4084 1.388 42.5964 1.796 43.4004 2.576C44.2764 3.44 44.7204 4.7 44.7204 6.296C44.7204 7.94 44.2404 9.26 43.3284 10.172C42.5244 10.964 41.3844 11.372 39.9564 11.372H37.4244C36.5004 11.372 36.1644 11.384 35.6604 11.408C35.7324 10.88 35.7564 10.484 35.7564 9.656ZM38.1324 9.272H39.7404C40.5204 9.272 41.0724 9.068 41.5044 8.636C41.9964 8.132 42.2604 7.328 42.2604 6.332C42.2604 5.312 42.0324 4.568 41.5644 4.1C41.1444 3.68 40.5684 3.488 39.7044 3.488H38.1324V9.272Z" fill="black"/>
<path d="M53.1138 8.384H47.7138C47.8338 9.356 48.3978 9.872 49.3458 9.872C49.8258 9.872 50.2458 9.716 50.5578 9.428C50.7378 9.26 50.8218 9.128 50.9178 8.816L53.0058 9.404C52.7298 10.028 52.5498 10.304 52.2138 10.64C51.5298 11.312 50.5698 11.66 49.3818 11.66C48.2058 11.66 47.2818 11.324 46.5978 10.64C45.8898 9.92 45.5058 8.9 45.5058 7.712C45.5058 5.336 47.0298 3.764 49.3218 3.764C51.1938 3.764 52.5018 4.784 52.9218 6.572C53.0178 6.956 53.0658 7.46 53.1018 8.144C53.1018 8.192 53.1018 8.264 53.1138 8.384ZM47.7498 6.728H50.8338C50.6658 5.96 50.1498 5.552 49.3218 5.552C48.4698 5.552 47.9538 5.936 47.7498 6.728Z" fill="black"/>
<path d="M53.5275 4.052H56.1915C56.2155 4.34 56.2755 4.592 56.4195 5.084L57.5355 8.816C57.5475 8.84 57.5595 8.888 57.5835 8.948C57.6195 9.068 57.6195 9.08 57.6795 9.284C57.7155 9.176 57.7275 9.116 57.7395 9.068C57.7515 9.044 57.7635 9.008 57.7755 8.948C57.7995 8.888 57.8115 8.84 57.8235 8.804L58.9395 5.084C59.0715 4.64 59.1435 4.316 59.1675 4.052H61.8315C61.5915 4.592 61.4955 4.82 61.3395 5.216L59.3235 10.364C59.1195 10.88 59.0595 11.072 58.9995 11.372H56.3715C56.3115 11.072 56.2515 10.88 56.0475 10.364L54.0315 5.216C53.9595 5.048 53.7915 4.664 53.5275 4.052Z" fill="black"/>
<path d="M66.1764 11.648C63.7644 11.648 62.2284 10.112 62.2284 7.7C62.2284 5.3 63.7644 3.776 66.1884 3.776C68.6124 3.776 70.1484 5.3 70.1484 7.676C70.1484 10.064 68.5644 11.648 66.1764 11.648ZM66.2004 5.576C65.1444 5.576 64.5204 6.368 64.5204 7.688C64.5204 9.02 65.1444 9.824 66.1884 9.824C67.2324 9.824 67.8324 9.044 67.8324 7.712C67.8324 6.368 67.2204 5.576 66.2004 5.576Z" fill="black"/>
<path d="M73.5786 13.544H71.1186C71.1786 13.028 71.2146 12.428 71.2146 11.792V5.936C71.2146 5.156 71.1906 4.664 71.1186 4.052H73.4826V4.46C73.4826 4.532 73.4706 4.628 73.4706 4.688C74.1906 4.088 74.9346 3.836 75.9306 3.836C76.9866 3.836 77.8506 4.148 78.4746 4.76C79.1106 5.396 79.4346 6.344 79.4346 7.556C79.4346 8.78 79.0746 9.776 78.3906 10.46C77.7786 11.072 76.9026 11.408 75.9186 11.408C75.3546 11.408 74.7426 11.288 74.2986 11.096C73.9866 10.964 73.8066 10.832 73.4706 10.544C73.4706 10.652 73.4706 10.808 73.4826 10.976V11.804C73.4826 12.476 73.5066 13.028 73.5786 13.544ZM75.3906 9.596C75.8466 9.596 76.2546 9.44 76.5666 9.14C76.9026 8.816 77.0946 8.264 77.0946 7.58C77.0946 6.356 76.4466 5.648 75.3186 5.648C74.3226 5.648 73.5066 6.524 73.5066 7.616C73.5066 8.744 74.3106 9.596 75.3906 9.596Z" fill="black"/>
<path d="M80.1238 9.188L82.4998 8.924C82.6198 9.548 83.0278 9.824 83.8318 9.824C84.5518 9.824 84.9598 9.62 84.9598 9.248C84.9598 9.068 84.8638 8.912 84.6958 8.816C84.5278 8.72 84.3718 8.672 83.7118 8.54C82.7998 8.36 82.3318 8.24 81.9358 8.108C81.3598 7.892 80.9638 7.616 80.7358 7.256C80.5438 6.932 80.4358 6.524 80.4358 6.116C80.4358 4.676 81.6478 3.8 83.6518 3.8C84.7918 3.8 85.6438 4.052 86.2078 4.568C86.6038 4.916 86.7958 5.264 86.9878 5.936L84.6718 6.188C84.6118 5.696 84.3118 5.48 83.6638 5.48C83.0398 5.48 82.6558 5.684 82.6558 5.996C82.6558 6.32 82.9078 6.44 84.0958 6.704C85.2718 6.956 85.6438 7.064 86.0638 7.28C86.8438 7.664 87.2158 8.252 87.2158 9.116C87.2158 9.752 86.9998 10.328 86.6038 10.712C86.0278 11.288 85.0438 11.588 83.7598 11.588C82.2478 11.588 81.1798 11.18 80.6038 10.388C80.3638 10.052 80.2438 9.764 80.1238 9.188Z" fill="black"/>
<path d="M97.2394 4.388L94.7674 4.868C94.5394 3.776 93.9034 3.236 92.8714 3.236C91.4074 3.236 90.5554 4.388 90.5554 6.368C90.5554 8.324 91.4434 9.512 92.9314 9.512C93.5914 9.512 94.1554 9.236 94.5034 8.756C94.7074 8.468 94.7914 8.228 94.8634 7.724L97.3594 8.096C97.1314 9.116 96.8674 9.704 96.3634 10.292C95.6194 11.144 94.4554 11.6 93.0034 11.6C91.5394 11.6 90.3034 11.144 89.4514 10.28C88.5634 9.38 88.0594 7.976 88.0594 6.368C88.0594 4.736 88.5634 3.356 89.5114 2.42C90.3394 1.616 91.5514 1.172 92.9554 1.172C94.5034 1.172 95.7154 1.7 96.4954 2.744C96.8794 3.236 97.0834 3.68 97.2394 4.388Z" fill="black"/>
<path d="M102.024 11.648C99.6121 11.648 98.0761 10.112 98.0761 7.7C98.0761 5.3 99.6121 3.776 102.036 3.776C104.46 3.776 105.996 5.3 105.996 7.676C105.996 10.064 104.412 11.648 102.024 11.648ZM102.048 5.576C100.992 5.576 100.368 6.368 100.368 7.688C100.368 9.02 100.992 9.824 102.036 9.824C103.08 9.824 103.68 9.044 103.68 7.712C103.68 6.368 103.068 5.576 102.048 5.576Z" fill="black"/>
<path d="M109.45 11.372H106.966C107.038 10.808 107.062 10.304 107.062 9.56V5.864C107.062 5.036 107.038 4.532 106.966 4.052H109.354V4.556C109.354 4.628 109.342 4.808 109.342 4.892C110.098 4.172 110.83 3.872 111.814 3.872C112.642 3.872 113.302 4.1 113.746 4.544C114.226 5.024 114.43 5.612 114.43 6.56V9.572C114.43 10.268 114.466 10.868 114.526 11.372H112.03C112.102 10.796 112.126 10.292 112.126 9.56V7.1C112.126 6.62 112.078 6.416 111.934 6.212C111.778 5.996 111.502 5.876 111.142 5.876C110.47 5.876 109.87 6.296 109.354 7.136V9.56C109.354 10.244 109.378 10.748 109.45 11.372Z" fill="black"/>
<path d="M118.263 11.372H115.779C115.851 10.808 115.875 10.304 115.875 9.56V5.864C115.875 5.036 115.851 4.532 115.779 4.052H118.167V4.556C118.167 4.628 118.155 4.808 118.155 4.892C118.911 4.172 119.643 3.872 120.627 3.872C121.455 3.872 122.115 4.1 122.559 4.544C123.039 5.024 123.243 5.612 123.243 6.56V9.572C123.243 10.268 123.279 10.868 123.339 11.372H120.843C120.915 10.796 120.939 10.292 120.939 9.56V7.1C120.939 6.62 120.891 6.416 120.747 6.212C120.591 5.996 120.315 5.876 119.955 5.876C119.283 5.876 118.683 6.296 118.167 7.136V9.56C118.167 10.244 118.191 10.748 118.263 11.372Z" fill="black"/>
<path d="M131.887 8.384H126.487C126.607 9.356 127.171 9.872 128.119 9.872C128.599 9.872 129.019 9.716 129.331 9.428C129.511 9.26 129.595 9.128 129.691 8.816L131.779 9.404C131.503 10.028 131.323 10.304 130.987 10.64C130.303 11.312 129.343 11.66 128.155 11.66C126.979 11.66 126.055 11.324 125.371 10.64C124.663 9.92 124.279 8.9 124.279 7.712C124.279 5.336 125.803 3.764 128.095 3.764C129.967 3.764 131.275 4.784 131.695 6.572C131.791 6.956 131.839 7.46 131.875 8.144C131.875 8.192 131.875 8.264 131.887 8.384ZM126.523 6.728H129.607C129.439 5.96 128.923 5.552 128.095 5.552C127.243 5.552 126.727 5.936 126.523 6.728Z" fill="black"/>
<path d="M139.921 6.272L137.761 6.716C137.653 6.356 137.581 6.188 137.425 6.008C137.185 5.732 136.849 5.588 136.417 5.588C135.445 5.588 134.869 6.356 134.869 7.676C134.869 8.972 135.481 9.812 136.441 9.812C136.909 9.812 137.341 9.62 137.581 9.284C137.689 9.128 137.749 9.008 137.797 8.732L140.005 9.08C139.873 9.596 139.729 9.92 139.501 10.268C138.901 11.156 137.809 11.648 136.417 11.648C135.265 11.648 134.281 11.288 133.621 10.616C132.925 9.932 132.541 8.876 132.541 7.7C132.541 5.3 134.053 3.764 136.393 3.764C138.241 3.764 139.525 4.676 139.921 6.272Z" fill="black"/>
<path d="M141.887 4.052V3.8C141.887 3.2 141.863 2.72 141.791 2.156H144.239C144.179 2.648 144.143 3.224 144.143 3.8V4.052H144.575C145.103 4.052 145.379 4.04 145.751 3.992V5.984C145.391 5.936 145.079 5.912 144.647 5.912H144.143V8.984C144.143 9.32 144.203 9.488 144.359 9.596C144.491 9.68 144.683 9.728 144.911 9.728C145.223 9.728 145.451 9.668 145.751 9.512L145.931 11.336C145.391 11.504 144.923 11.576 144.275 11.576C143.459 11.576 142.895 11.444 142.511 11.156C142.055 10.808 141.887 10.4 141.887 9.584V5.912H141.431C141.047 5.912 140.735 5.936 140.387 5.984V3.98C140.735 4.028 141.035 4.052 141.455 4.052H141.887Z" fill="black"/>
<defs>
<linearGradient id="paint0_linear_30_437" x1="1.44828" y1="2.89655" x2="28.9655" y2="11.8276" gradientUnits="userSpaceOnUse">
<stop stop-color="#8BCC00"/>
<stop offset="0.197917" stop-color="#FFA100"/>
<stop offset="0.40625" stop-color="#FF6400"/>
<stop offset="0.59375" stop-color="#EB0009"/>
<stop offset="0.791667" stop-color="#683E9E"/>
<stop offset="1" stop-color="#00A1E1"/>
</linearGradient>
<linearGradient id="paint1_linear_30_437" x1="5.3855" y1="5.44351" x2="21.2456" y2="15.1951" gradientUnits="userSpaceOnUse">
<stop stop-color="#8BCC00"/>
<stop offset="0.197917" stop-color="#FFA100"/>
<stop offset="0.40625" stop-color="#FF6400"/>
<stop offset="0.59375" stop-color="#EB0009"/>
<stop offset="0.791667" stop-color="#683E9E"/>
<stop offset="1" stop-color="#00A1E1"/>
</linearGradient>
</defs>
</svg>
